#!OML:ASF E:\acrobat2\Project_11_07_03\Capture day 1\Session 1\Acrobat.ASF
:FULLY-SPECIFIED
:DEGREES
1
root 7.0746 17.8684 -29.3839 -172.752 -1.9106 -177.986
lowerback -7.71386 0.0351914 -3.13429
upperback 0.816477 0.3717 -1.97291
thorax 5.17528 0.0920102 -0.248933
lowerneck 3.53238 2.98274 -3.52871
upperneck 12.1006 2.85299 3.38683
head 3.17188 1.01964 1.74171
rclavicle -5.36719e-015 9.54166e-015
rhumerus -37.3808 2.97921 -86.1522
rradius 24.268
rwrist 1.07478
rhand -7.35053 -32.3419
rfingers 7.12502
rthumb 18.5337 -61.479
lclavicle -5.36719e-015 9.54166e-015
lhumerus -23.2799 -9.16732 78.4381
lradius 25.8314
lwrist 15.8615
lhand -13.3942 -10.2257
lfingers 7.12502
lthumb 12.7132 19.3673
rfemur -8.73322 5.08399 22.8595
rtibia 18.0072
rfoot -7.36457 -5.34583
rtoes -6.02171
lfemur -18.6549 9.05234 -18.764
ltibia 28.7019
lfoot -8.1396 -18.8314
ltoes 3.2678
2
root 7.06986 17.8416 -29.3991 -172.884 -1.95473 -177.94
lowerback -7.4937 0.0741942 -2.94516
upperback 0.607718 0.387832 -1.99725
thorax 4.83308 0.109545 -0.377228
lowerneck 3.70705 3.06898 -3.862
upperneck 11.6509 2.97877 3.70407
head 2.9733 1.09364 1.89552
rclavicle 2.98177e-016 -3.33958e-014
rhumerus -37.7693 2.62868 -85.9655
rradius 24.1792
rwrist 1.35274
rhand -7.32341 -32.6279
rfingers 7.12502
rthumb 18.5598 -61.7625
lclavicle 2.98177e-016 -3.33958e-014
lhumerus -23.5886 -9.36979 78.5943
lradius 26.3981
lwrist 16.1133
lhand -13.1335 -9.4336
lfingers 7.12502
lthumb 12.9645 20.1436
rfemur -8.80358 5.28247 23.0549
rtibia 18.7743
rfoot -8.37095 -5.98429
rtoes -9.10479
lfemur -17.9849 9.94111 -18.7415
ltibia 28.1799
lfoot -6.90807 -19.8403
ltoes 8.85137
3
root 7.06557 17.8121 -29.4122 -173.029 -2.01628 -177.898
lowerback -7.34134 0.0665798 -2.8073
upperback 0.47298 0.353197 -2.00804
thorax 4.60759 0.098467 -0.468953
lowerneck 3.79873 3.0903 -3.91956
upperneck 11.1439 3.05837 3.74357
head 2.77969 1.15389 1.90833
rclavicle -7.95139e-016 -4.6118e-014
rhumerus -38.001 2.14333 -85.6984
rradius 24.0558
rwrist 1.83616
rhand -6.97352 -33.0713
rfingers 7.12502
rthumb 18.8963 -62.1735
lclavicle -7.95139e-016 -4.6118e-014
lhumerus -23.7368 -9.19139 78.6571
lradius 26.7714
lwrist 16.0026
lhand -13.5742 -9.83981
lfingers 7.12502
lthumb 12.5397 19.7639
rfemur -8.91993 5.48275 23.2528
rtibia 19.6499
rfoot -9.40826 -6.5887
rtoes -10.5356
lfemur -17.3121 10.6739 -18.7003
ltibia 27.6791
lfoot -5.63415 -20.7669
ltoes 13.8657
4
root 7.05991 17.7847 -29.4243 -173.189 -2.063 -177.853
lowerback -7.23352 0.0351291 -2.69848
upperback 0.388446 0.293924 -1.99744
thorax 4.45973 0.0734513 -0.524971
lowerneck 3.88974 2.98555 -3.7876
upperneck 10.5299 3.01706 3.34604
head 2.56429 1.15566 1.74135
rclavicle 1.09332e-015 3.33958e-014
rhumerus -38.102 1.73446 -85.4304
rradius 23.8919
rwrist 2.27104
rhand -6.32259 -33.5085
rfingers 7.12502
rthumb 19.5222 -62.5484
lclavicle 1.09332e-015 3.33958e-014
lhumerus -23.7672 -8.81211 78.7182
lradius 26.8822
lwrist 15.8539
lhand -14.6585 -11.3028
lfingers 7.12502
lthumb 11.4941 18.3621
rfemur -9.14757 5.58249 23.4627
rtibia 20.7313
rfoot -10.4257 -7.1477
rtoes -10.9711
lfemur -16.583 11.1975 -18.6552
ltibia 27.0774
lfoot -4.43093 -21.314
ltoes 18.5296
5
root 7.04841 17.7567 -29.4456 -173.622 -1.84786 -177.779
lowerback -6.99995 0.0844997 -2.51766
upperback 0.415393 0.339107 -1.97119
thorax 4.35639 0.102484 -0.59399
lowerneck 4.05762 2.98239 -3.78617
upperneck 9.81283 3.09165 3.15983
head 2.29514 1.21679 1.66528
rclavicle -4.96962e-016 1.59028e-015
rhumerus -38.1697 1.33604 -85.1051
rradius 23.729
rwrist 2.74813
rhand -5.67136 -33.6123
rfingers 7.12502
rthumb 20.1482 -62.5875
lclavicle -4.96962e-016 1.59028e-015
lhumerus -23.8535 -8.36703 78.8273
lradius 27.0489
lwrist 15.8523
lhand -15.3382 -12.2192
lfingers 7.12502
lthumb 10.8385 17.4811
rfemur -8.96235 5.73855 23.6922
rtibia 21.6315
rfoot -11.3602 -7.54889
rtoes -10.9286
lfemur -15.5425 11.6748 -18.5548
ltibia 26.5469
lfoot -3.74948 -21.5241
ltoes 21.8102
6
root 7.03481 17.6955 -29.4654 -174.233 -1.40946 -177.67
lowerback -6.71945 0.228579 -2.26045
upperback 0.557877 0.510173 -1.94171
thorax 4.34695 0.195772 -0.690207
lowerneck 3.92526 3.19773 -3.80231
upperneck 9.55085 3.39994 3.46629
head 2.21581 1.39168 1.76696
rclavicle 3.37934e-015 6.2816e-014
rhumerus -38.198 0.767727 -84.6674
rradius 23.5946
rwrist 3.39268
rhand -5.2164 -33.3657
rfingers 7.12502
rthumb 20.5855 -62.2942
lclavicle 3.37934e-015 6.2816e-014
lhumerus -23.8777 -7.85854 78.9381
lradius 27.3046
lwrist 15.8847
lhand -15.471 -12.3119
lfingers 7.12502
lthumb 10.7104 17.3951
rfemur -8.49937 5.92614 23.9099
rtibia 22.3851
rfoot -12.1957 -7.59747
rtoes -11.0866
lfemur -14.0393 11.9763 -18.384
ltibia 26.0533
lfoot -2.20706 -21.8237
ltoes 30.9703
7
root 7.02348 17.6886 -29.4862 -174.78 -1.06836 -177.592
lowerback -6.40416 0.364761 -2.02258
upperback 0.667336 0.669913 -1.92593
thorax 4.28461 0.282953 -0.792091
lowerneck 4.11781 3.14 -3.81502
upperneck 8.84311 3.39125 3.29905
head 1.95273 1.40878 1.69862
rclavicle 1.39149e-015 -3.33958e-014
rhumerus -38.3143 0.356354 -84.3292
rradius 23.5701
rwrist 3.60106
rhand -5.17735 -33.217
rfingers 7.12502
rthumb 20.623 -62.1414
lclavicle 1.39149e-015 -3.33958e-014
lhumerus -23.8497 -7.42175 79.0739
lradius 27.4252
lwrist 15.9635
lhand -15.6384 -12.5308
lfingers 7.12502
lthumb 10.5489 17.1844
rfemur -7.91008 6.0491 24.0613
rtibia 22.8509
rfoot -12.8954 -7.58469
rtoes -11.468
lfemur -13.0704 11.9843 -18.2141
ltibia 25.6816
lfoot -2.65256 -21.5147
ltoes 30.3454
8
root 7.02034 17.69 -29.4992 -175.049 -1.02047 -177.479
lowerback -6.2332 0.381729 -1.85627
upperback 0.670897 0.676242 -1.86234
thorax 4.19284 0.291846 -0.819552
lowerneck 4.20429 3.09933 -3.55389
upperneck 8.25705 3.42151 2.84021
head 1.7569 1.4463 1.49394
rclavicle 1.68967e-015 -1.90833e-014
rhumerus -38.471 0.22712 -84.1313
rradius 23.6157
rwrist 3.38159
rhand -5.42913 -33.3288
rfingers 7.12502
rthumb 20.3811 -62.2793
lclavicle 1.68967e-015 -1.90833e-014
lhumerus -23.8936 -6.98905 79.2291
lradius 27.5661
lwrist 16.0365
lhand -15.9088 -12.6821
lfingers 7.12502
lthumb 10.2882 17.0462
rfemur -7.55789 6.18956 24.2321
rtibia 23.1378
rfoot -13.392 -7.72411
rtoes -12.4619
lfemur -12.5411 11.8229 -18.0398
ltibia 25.3792
lfoot -2.98481 -21.2804
ltoes 29.528
9
root 7.01822 17.6957 -29.513 -175.261 -0.968091 -177.362
lowerback -6.20023 0.377857 -1.71056
upperback 0.714895 0.661981 -1.79106
thorax 4.22062 0.289178 -0.828926
lowerneck 4.04427 3.08418 -3.45477
upperneck 7.86073 3.46862 2.5866
head 1.66051 1.48922 1.39272
rclavicle 2.48481e-015 5.56597e-015
rhumerus -38.4648 0.128722 -83.9561
rradius 23.5692
rwrist 3.14091
rhand -5.62353 -33.3205
rfingers 7.12502
rthumb 20.1942 -62.2908
lclavicle 2.48481e-015 5.56597e-015
lhumerus -23.9029 -6.51075 79.3595
lradius 27.7977
lwrist 16.131
lhand -16.0852 -12.4746
lfingers 7.12502
lthumb 10.118 17.2621
rfemur -7.08506 6.27016 24.3803
rtibia 23.0772
rfoot -13.8146 -7.69024
rtoes -13.5164
lfemur -12.1638 11.5197 -17.8778
ltibia 25.2262
lfoot -3.4735 -20.9589
ltoes 28.433
